<?xml version="1.0" encoding="UTF-8"?>
<!DOCTYPE svg PUBLIC "-//W3C//DTD SVG 1.1//EN" "http://www.w3.org/Graphics/SVG/1.1/DTD/svg11.dtd">
<!-- Creator: CorelDRAW X7 -->
<svg xmlns="http://www.w3.org/2000/svg" xml:space="preserve" width="1.99999in" height="1.39999in" version="1.1" style="shape-rendering:geometricPrecision; text-rendering:geometricPrecision; image-rendering:optimizeQuality; fill-rule:evenodd; clip-rule:evenodd"
viewBox="0 0 2000 1400"
 xmlns:xlink="http://www.w3.org/1999/xlink">
 <defs>
  <style type="text/css">
   <![CDATA[
    .fil5 {fill:#FEFEFE}
    .fil6 {fill:#5D5E60}
    .fil3 {fill:#87C46D}
    .fil2 {fill:#66BD5D}
    .fil1 {fill:#4D4E4E}
    .fil4 {fill:#58A055}
    .fil0 {fill:#4CB752;fill-rule:nonzero}
    .fil8 {fill:url(#id26)}
    .fil7 {fill:url(#id27)}
   ]]>
  </style>
    <clipPath id="id0">
     <path d="M423 1027c0,0 0,0 0,0l74 0 0 0 0 0 0 0 290 0 -363 0c0,0 0,0 -1,0l0 0z"/>
    </clipPath>
    <clipPath id="id1">
     <path d="M382 623l0 0 0 -28 -1 -106 -1 -549c0,0 0,0 0,0l1 549 1 106 0 28zm1276 -31l-1 -662c0,0 0,0 0,0 0,0 0,0 0,1l1 661zm-639 -657c-7,0 -13,-1 -19,-5 -32,-16 -65,-29 -100,-39 35,10 68,23 100,39 6,4 12,5 19,5 6,0 13,-1 19,-4 0,0 0,0 0,0 -6,3 -13,4 -19,4zm64 -24c0,0 0,0 0,0 0,0 0,0 0,0zm1 0c0,0 0,0 0,0 0,0 0,0 0,0zm0 -1c0,0 0,0 0,0 0,0 0,0 0,0zm1 0c0,0 0,0 0,0 0,0 0,0 0,0zm0 0c0,0 0,0 0,0 0,0 0,0 0,0zm0 0c0,0 1,0 1,0 0,0 -1,0 -1,0zm1 0c0,0 0,0 0,0 0,0 0,0 0,0zm0 0c0,-1 1,-1 1,-1 0,0 -1,0 -1,1zm1 -1c0,0 0,0 0,0 0,0 0,0 0,0zm0 0c0,0 0,0 0,0 0,0 0,0 0,0zm1 0c0,0 0,0 0,0 0,0 0,0 0,0zm0 0c0,0 1,0 1,0 0,0 -1,0 -1,0zm1 0c0,0 0,0 0,0 0,0 0,0 0,0zm0 0c0,0 0,0 1,-1 -1,1 -1,1 -1,1zm1 -1c0,0 0,0 0,0 0,0 0,0 0,0zm0 0c23,-8 48,-15 73,-21 -25,6 -50,13 -73,21zm-190 -17c0,0 0,0 0,0 0,0 0,0 0,0zm0 0c-1,0 -1,0 -1,0 0,0 0,0 1,0zm-1 0c0,0 0,0 0,0 0,0 0,0 0,0zm0 0c0,0 -1,0 -1,0 0,0 1,0 1,0zm-1 0c0,-1 0,-1 0,-1 0,0 0,0 0,1zm0 -1c0,0 0,0 0,0 0,0 0,0 0,0zm-1 0c0,0 0,0 0,0 0,0 0,0 0,0zm0 0c0,0 0,0 0,0 0,0 0,0 0,0zm0 0c0,0 -1,0 -1,0 0,0 1,0 1,0zm-1 0c0,0 0,0 0,0 0,0 0,0 0,0zm-1 0c0,0 0,0 0,0 0,0 0,0 0,0zm0 0c0,-1 0,-1 0,-1 0,0 0,0 0,1zm0 -1c0,0 -1,0 -1,0 0,0 1,0 1,0zm-1 0c0,0 0,0 0,0 0,0 0,0 0,0zm0 0c0,0 0,0 0,0 0,0 0,0 0,0zm-1 0c0,0 0,0 0,0 0,0 0,0 0,0zm0 0c0,0 0,0 0,0 0,0 0,0 0,0zm0 0c0,0 -1,0 -1,0 0,0 1,0 1,0zm-1 0c0,0 0,0 0,0 0,0 0,0 0,0zm-1 0c0,0 0,0 0,0 0,0 0,0 0,0zm0 -1c0,0 0,0 0,0 0,0 0,0 0,0zm0 0c0,0 0,0 0,0l0 0zm-1 0l0 0 0 0zm273 -1c0,0 0,0 0,0 0,0 0,0 0,0zm1 0c0,0 0,0 0,0 0,0 0,0 0,0zm0 0c0,0 0,0 0,0 0,0 0,0 0,0zm0 0c1,0 1,0 1,0 0,0 0,0 -1,0zm1 -1c0,0 0,0 0,0 0,0 0,0 0,0zm0 0c1,0 1,0 1,0 0,0 0,0 -1,0zm1 0c0,0 0,0 1,0 -1,0 -1,0 -1,0zm1 0c0,0 0,0 0,0 0,0 0,0 0,0zm0 0c0,0 0,0 1,0 -1,0 -1,0 -1,0zm1 0c0,0 0,0 0,0 0,0 0,0 0,0zm0 0c0,0 0,0 0,0 0,0 0,0 0,0zm1 0c0,-1 0,-1 0,-1 0,0 0,0 0,1zm0 -1c0,0 0,0 0,0 0,0 0,0 0,0zm1 0c0,0 0,0 0,0 0,0 0,0 0,0zm0 0c0,0 0,0 0,0 0,0 0,0 0,0zm1 0c0,0 0,0 0,0 0,0 0,0 0,0zm189 -25c1,0 2,0 3,0 -1,0 -2,0 -3,0zm3 0c2,0 5,0 8,0 -3,0 -6,0 -8,0zm9 0c0,0 0,0 0,0 0,0 0,0 0,0zm3 0c0,0 0,0 0,0 0,0 0,0 0,0zm-721 -1c-28,-1 -57,-2 -85,-2 -36,0 -73,1 -108,1 35,0 72,-1 108,-1 28,0 57,1 85,2zm929 -2c0,0 0,0 0,0 -5,0 -10,0 -15,0 6,0 10,0 15,0 0,0 0,0 0,0zm-15 0c0,0 0,0 -1,0 1,0 1,0 1,0zm-2 0c0,0 0,0 0,0 0,0 0,0 0,0l0 0z"/>
    </clipPath>
    <clipPath id="id2">
     <path d="M423 1028c-22,-1 -41,-19 -41,-41l0 -364 0 -28 -1 -106 -1 -549c0,-45 36,-81 81,-81 0,0 0,0 0,0 35,-1 72,-1 108,-1 28,0 57,0 85,1 8,0 16,0 24,1l92 6c42,5 82,12 120,22l0 0c0,0 0,0 1,0 0,0 0,0 0,0 0,0 0,0 0,0 0,0 0,0 0,0 0,1 0,1 0,1 0,0 0,0 0,0 0,0 1,0 1,0 0,0 0,0 0,0 0,0 0,0 0,0 0,0 1,0 1,0 0,0 0,0 0,0 0,0 0,0 0,0 0,0 0,0 0,0 0,0 0,0 0,0 0,0 1,0 1,0 0,0 0,0 0,0 0,0 0,0 0,0 0,0 0,0 0,0 0,0 0,0 0,0 0,0 1,0 1,0 0,0 0,1 0,1 0,0 0,0 0,0 0,0 0,0 0,0 0,0 0,0 0,0 0,0 1,0 1,0 0,0 0,0 0,0 0,0 0,0 0,0 0,0 1,0 1,0 0,0 0,0 0,0 0,0 0,0 0,0 0,0 0,0 0,0 0,0 0,0 0,0 0,0 1,0 1,0 0,0 0,0 0,0 0,0 0,0 0,0 0,0 0,0 0,0 0,0 0,1 0,1 0,0 1,0 1,0 0,0 0,0 0,0 0,0 0,0 0,0 0,0 0,0 0,0 0,0 0,0 1,0 0,0 0,0 0,0 0,0 0,0 0,0 0,0 0,0 0,0 35,10 68,23 100,40 6,3 12,4 19,4 6,0 13,-1 19,-4 0,0 0,0 0,0 0,0 0,0 0,0 -7,3 -13,6 -19,10l0 0 0 0 1 380c-1,7 -1,14 -1,21 0,-161 -130,-291 -291,-291 0,0 -1,0 -1,0 -160,1 -290,131 -290,292 0,160 131,290 291,290 0,0 0,0 1,0 49,0 96,-13 138,-35 -1,4 -1,12 0,16l0 0c0,0 6,4 16,11 -193,51 -343,207 -386,402l-74 1zm569 -1074l0 0 0 0c-70,-39 -145,-59 -233,-69l-85 -6c-34,-2 -68,-2 -102,-2 -47,0 -93,1 -138,1 -21,1 -38,17 -37,38 58,-10 119,-14 179,-14 216,0 416,52 416,52zm263 1072c0,0 0,0 0,0 0,0 0,0 0,0zm0 0c0,0 0,0 0,0 0,0 0,0 0,0zm0 0c0,0 0,0 0,0 0,0 0,0 0,0zm1 0c0,0 0,0 0,0l0 0c0,0 0,0 0,0zm254 -92c1,-1 3,-2 4,-4l0 0 0 0 0 0 0 0c0,0 0,0 0,0 -1,2 -3,3 -4,4zm148 -313c0,0 0,0 0,0 0,0 0,0 0,0zm0 0c0,0 0,0 0,0 0,0 0,0 0,0 0,0 0,0 0,0zm0 0c0,0 0,0 0,-1l0 -28 -1 -662c0,0 0,0 0,0 0,0 0,0 0,0l1 662 0 28c0,1 0,1 0,1zm-672 -144c21,-40 33,-86 33,-134 0,7 0,14 1,21l0 108c0,0 -1,0 -1,0 -1,0 -2,0 -3,0 -7,1 -17,2 -30,5zm280 -608c0,0 0,0 0,0 0,0 0,0 0,0zm0 0c0,0 0,0 0,0 0,0 0,0 0,0zm1 0c0,0 0,0 0,0 0,0 0,0 0,0zm0 0c0,0 0,0 0,0 0,0 0,0 0,0zm1 0c0,0 0,0 0,0l92 -8 0 0c1,0 2,-1 3,-1 0,0 0,0 0,0 2,0 5,0 8,0 0,0 0,0 1,0 0,0 0,0 0,0 1,0 2,0 3,0 0,0 0,0 0,0 53,-3 106,-3 159,-3 11,0 22,0 32,0 0,0 0,0 0,0 1,0 1,0 1,0 1,0 1,0 1,0 0,0 0,0 0,0 5,0 10,0 15,0 -16,0 -32,0 -49,0 -58,0 -117,0 -174,4l-92 8c0,0 0,0 0,0l0 0z"/>
    </clipPath>
    <clipPath id="id3">
     <path d="M497 1027c43,-196 193,-351 386,-402 2,1 3,2 5,3 17,47 99,136 132,137l1 261 235 0c-1,0 -1,0 -1,0l-404 1 -64 0 -290 0 0 0z"/>
    </clipPath>
    <clipPath id="id4">
     <path d="M1021 1026l-1 -261 0 0 1 261zm493 -96c-64,-147 -197,-261 -357,-304 9,-6 15,-10 16,-12 1,-4 1,-9 1,-14 41,21 87,33 136,33 0,0 0,0 0,0 161,0 291,-131 291,-291 -1,-161 -131,-291 -291,-291 -1,0 -1,0 -1,0 -153,1 -279,120 -289,270l-1 -380c69,-40 159,-61 249,-72l92 -8c57,-4 116,-4 174,-4 30,0 60,0 90,0 18,0 33,15 33,33l2 702 0 28c0,1 0,1 0,1 0,125 -56,236 -145,309l0 0zm-54 -1053c-34,0 -68,0 -101,2l-86 6c-87,10 -163,30 -232,69 0,0 200,-52 416,-52 59,0 120,4 179,14 0,-21 -17,-37 -38,-38 -45,0 -91,-1 -138,-1zm-409 599c-10,-2 -19,-3 -25,-4 -2,0 -3,0 -4,0l0 0c-1,0 -1,0 -2,0l0 -108c3,40 14,78 31,112l0 0z"/>
    </clipPath>
    <clipPath id="id5">
     <path d="M1020 364c-1,-7 -1,-14 -1,-21 0,-1 0,-1 0,-1l0 0c0,-7 0,-14 1,-21l0 43 0 0z"/>
    </clipPath>
    <clipPath id="id6">
     <path d="M1310 633c-49,0 -95,-12 -136,-33 0,-3 0,-5 0,-7 0,-4 0,-9 -1,-13 -3,-11 -8,-21 -13,-31 42,31 94,49 150,49 0,0 0,0 0,0 141,0 254,-114 254,-255 0,-24 -4,-48 -10,-70 0,0 -1,1 -1,2 -29,-107 -127,-185 -243,-185 0,0 -1,0 -1,0 -116,0 -214,79 -243,186 0,-1 0,-1 -1,-2 -6,22 -9,46 -9,70 0,57 18,109 50,151 -19,-10 -39,-16 -55,-19 -17,-34 -28,-72 -31,-112l-1 -43c11,-150 137,-269 290,-270 0,0 1,0 1,0 160,0 290,130 290,291 1,160 -129,291 -290,291 0,0 0,0 0,0l0 0z"/>
    </clipPath>
    <clipPath id="id7">
     <path d="M1310 598c-56,0 -108,-18 -150,-49 -1,-2 -2,-4 -4,-6 43,32 96,52 154,52 0,0 0,0 0,0 140,0 253,-114 252,-253 0,-24 -3,-46 -9,-67 0,-1 0,-2 1,-2 6,22 10,46 10,70 0,141 -114,255 -254,255 0,0 0,0 0,0zm-199 -99c-1,-1 -3,-3 -5,-4 -32,-42 -50,-94 -50,-151 0,-24 3,-48 9,-70 0,1 1,1 1,2 -6,21 -9,43 -9,67 0,59 20,113 54,156l0 0z"/>
    </clipPath>
    <clipPath id="id8">
     <path d="M1310 595c-58,0 -111,-20 -154,-52 -12,-20 -28,-34 -45,-44 -33,-43 -54,-97 -54,-156 0,-23 3,-46 9,-67 31,104 128,181 243,181 1,0 1,0 1,0 115,0 212,-77 243,-182 6,21 9,43 9,67 1,139 -112,253 -252,253 0,0 0,0 0,0l0 0z"/>
    </clipPath>
    <clipPath id="id9">
     <path d="M1021 1026l-1 -261c1,0 1,0 1,0 1,0 2,0 3,0 0,0 0,0 0,0 28,0 103,-81 125,-134 3,-2 5,-4 8,-5 160,43 293,156 357,305 -70,59 -159,95 -258,95l-235 0 0 0z"/>
    </clipPath>
    <clipPath id="id10">
     <path d="M883 625c-10,-7 -16,-11 -16,-11l-1 -1c0,-3 0,-11 1,-15 0,0 0,0 0,0 2,1 10,6 21,12 1,4 3,8 5,12 -3,1 -6,2 -10,3l0 0z"/>
    </clipPath>
    <clipPath id="id11">
     <path d="M1020 765c-33,-1 -115,-90 -132,-137 -2,-1 -3,-2 -5,-3 4,-1 7,-2 10,-3 25,47 96,119 127,120l0 23 0 0z"/>
    </clipPath>
    <clipPath id="id12">
     <path d="M1020 765l0 0 0 -23 0 0 0 23zm137 -139c-4,-1 -8,-2 -13,-3 2,-3 3,-6 5,-9 11,-7 20,-13 23,-15 1,0 2,0 2,1 0,5 0,10 -1,14 -1,2 -7,6 -16,12l0 0z"/>
    </clipPath>
    <clipPath id="id13">
     <path d="M1174 600c0,-1 -1,-1 -2,-1 1,-1 1,-1 1,-1 0,-2 1,-3 1,-5 0,2 0,4 0,7l0 0z"/>
    </clipPath>
    <clipPath id="id14">
     <path d="M1021 765c0,0 0,0 -1,0l0 -23c1,0 1,0 1,0 0,0 0,0 0,0 0,0 1,0 1,0 1,0 1,0 2,0 0,0 0,0 0,0 0,0 0,0 0,0 26,0 94,-69 120,-119 5,1 9,2 13,3 -3,1 -5,3 -8,5 -22,53 -97,134 -125,134 0,0 0,0 0,0 -1,0 -2,0 -3,0l0 0z"/>
    </clipPath>
    <clipPath id="id15">
     <path d="M728 633c-160,0 -291,-130 -291,-290 0,-161 130,-291 290,-292 1,0 1,0 1,0 160,0 291,130 291,291 0,0 0,0 0,1l0 0c0,48 -12,94 -33,134 -18,5 -39,12 -60,26 35,-44 56,-99 56,-160 0,-24 -3,-48 -10,-70 0,0 0,1 0,2 -30,-107 -128,-185 -244,-185 0,0 0,0 0,0 -117,0 -215,79 -244,186 0,-1 0,-1 0,-2 -7,22 -10,46 -10,70 0,141 114,254 254,254 0,0 0,0 0,0 60,0 115,-21 158,-55 -8,12 -15,27 -19,44 0,3 -1,7 -1,10l0 0 1 0c0,0 0,1 0,1 -42,22 -89,35 -138,35 -1,0 -1,0 -1,0l0 0z"/>
    </clipPath>
    <clipPath id="id16">
     <path d="M1019 343l0 0c0,-1 0,-1 0,-1 0,0 0,0 0,0 0,0 0,0 0,1l0 0z"/>
    </clipPath>
    <clipPath id="id17">
     <path d="M867 598c0,0 0,-1 0,-1l0 0 0 0 0 0 0 0c0,0 0,0 0,1 0,0 0,0 0,0l0 0z"/>
    </clipPath>
    <clipPath id="id18">
     <path d="M728 598c-140,0 -254,-113 -254,-254 0,-24 3,-48 10,-70 0,1 0,1 0,2 -6,21 -9,43 -9,67 1,139 114,252 253,252 0,0 0,0 1,0 62,0 120,-23 164,-61 -3,3 -5,6 -7,9 -43,34 -98,55 -157,55 -1,0 -1,0 -1,0zm190 -89c39,-45 63,-103 63,-167 0,-24 -4,-46 -9,-67 0,-1 0,-2 0,-2 7,22 10,46 10,70 0,61 -21,116 -55,160 -3,1 -6,4 -9,6l0 0z"/>
    </clipPath>
    <clipPath id="id19">
     <path d="M728 595c-139,0 -252,-113 -253,-252 0,-23 3,-46 9,-67 32,104 129,181 244,181 0,0 0,0 0,0 115,0 213,-77 243,-182 6,21 10,43 10,67 0,64 -24,122 -63,167 -9,7 -18,15 -25,25 -44,38 -102,61 -165,61 0,0 0,0 0,0l0 0z"/>
    </clipPath>
    <clipPath id="id20">
     <path d="M1020 693c-20,0 -79,-33 -118,-56 -6,-10 -11,-19 -14,-27 37,23 109,65 132,65 24,0 92,-38 129,-61 -4,8 -9,18 -15,27 -38,23 -93,52 -114,52l0 0z"/>
    </clipPath>
    <clipPath id="id21">
     <path d="M992 -45c0,0 -200,-53 -416,-53 -60,0 -121,4 -180,14 0,-21 17,-37 38,-38 45,0 91,-1 138,-1 34,0 68,0 102,2l85 6c88,10 163,30 233,70l0 0z"/>
    </clipPath>
    <clipPath id="id22">
     <path d="M1041 -45c69,-40 145,-60 232,-70l86 -6c33,-2 67,-2 101,-2 47,0 93,1 138,1 21,1 38,17 38,38 -59,-10 -120,-14 -180,-14 -215,0 -415,53 -415,53l0 0z"/>
    </clipPath>
    <clipPath id="id23">
     <path d="M1019 675c-34,-2 -152,-77 -152,-78l0 0 0 0 0 0 -1 0 0 0c0,-3 1,-7 1,-10 24,-97 123,-113 149,-115l0 0 0 0c0,0 6,8 6,86 0,28 -1,66 -3,117l0 0z"/>
    </clipPath>
    <clipPath id="id24">
     <path d="M1026 472c-2,0 -3,0 -4,0 1,0 2,0 4,0l0 0z"/>
    </clipPath>
    <clipPath id="id25">
     <path d="M1019 675c2,-51 3,-89 3,-117 0,-78 -6,-86 -6,-86 1,0 2,0 3,0 1,0 2,0 3,0l0 0c1,0 2,0 4,0 7,1 16,2 26,4 -5,54 -17,157 -33,199l0 0z"/>
    </clipPath>
  <linearGradient id="id26" gradientUnits="userSpaceOnUse" x1="1022.15" y1="498.217" x2="1017.09" y2="745.961">
   <stop offset="0" style="stop-opacity:1; stop-color:#F8ED3D"/>
   <stop offset="1" style="stop-opacity:1; stop-color:#F79534"/>
   <stop offset="1" style="stop-opacity:1; stop-color:#F79534"/>
  </linearGradient>
  <linearGradient id="id27" gradientUnits="userSpaceOnUse" xlink:href="#id26" x1="1019.74" y1="516.575" x2="1019.98" y2="738.5">
  </linearGradient>
 </defs>
 <g id="Layer_x0020_1">
  <metadata id="CorelCorpID_0Corel-Layer"/>
  <g id="_2591211072592">
   <g>
    <path class="fil0" d="M1106 1627c-37,38 -81,57 -132,57 -41,0 -76,-9 -112,-30l0 -85c29,19 65,38 101,38 74,0 119,-52 119,-124 0,-73 -46,-126 -121,-126 -33,0 -60,12 -81,36 -23,26 -34,63 -34,112l0 339 -6 0c-41,0 -74,-33 -74,-74l0 -277c0,-118 71,-213 195,-213 61,0 110,21 148,63 35,39 53,89 53,148 0,54 -19,99 -56,136zm866 -2c-37,39 -84,59 -141,59 -61,0 -110,-21 -147,-63 -36,-40 -53,-89 -53,-149 0,-104 81,-192 187,-192 41,0 77,9 113,29l0 86c-29,-19 -66,-38 -101,-38 -75,0 -119,51 -119,124 0,72 47,126 120,126 34,0 61,-13 83,-38 22,-25 33,-61 33,-111l0 -269c0,-41 33,-75 74,-75l6 0 0 357c0,63 -18,114 -55,154zm226 -383c-8,10 -21,14 -35,14 -28,0 -47,-20 -47,-47 0,-28 19,-47 47,-47 27,0 47,20 47,47 0,13 -4,24 -12,33zm406 216c0,-31 -12,-56 -36,-75 -21,-17 -48,-26 -81,-26 -72,0 -119,57 -119,127 0,67 49,123 118,123 48,0 74,-28 101,-63l0 100c-14,11 -30,22 -46,29 -17,7 -38,11 -62,11 -115,0 -191,-96 -191,-206 0,-57 18,-103 53,-140 38,-38 87,-58 147,-58 114,0 196,66 196,185l0 211 -5 0c-41,0 -75,-34 -75,-75l0 -143zm-1094 -22c-11,-32 -23,-47 -52,-63 -70,-39 -138,-6 -170,62l222 1zm-61 246c-52,11 -102,3 -151,-24 -47,-27 -79,-67 -95,-119 -33,-106 34,-224 140,-253 53,-14 104,-7 152,20 80,44 109,114 104,203l-322 -1c5,36 27,65 59,82 32,18 62,23 89,14 30,-9 55,-34 75,-57l66 48c-27,48 -64,76 -117,87zm674 -394l80 0 0 388 -6 0c-41,0 -74,-34 -74,-75l0 -313z"/>
    <path class="fil0" d="M-589 1676c-79,0 -117,-54 -117,-128l0 -282c0,-41 33,-74 74,-74l5 0 0 96 136 0 0 77 -136 0 0 192c0,33 15,42 46,42l90 0 0 77 -98 0zm464 -49c-40,38 -87,57 -142,57 -55,0 -102,-19 -142,-57 -39,-38 -59,-87 -59,-145 0,-114 87,-202 201,-202 54,0 102,20 142,58 39,38 59,86 59,144 0,58 -19,107 -59,145zm374 -245c-12,19 -21,33 -27,42 -7,9 -14,16 -21,22 55,18 76,56 76,113l0 117 -6 0c-41,0 -74,-34 -74,-75l0 -34c0,-37 -17,-62 -56,-62l-73 0 0 171 -5 0c-41,0 -75,-34 -75,-75l0 -412c0,-41 34,-75 75,-75l5 0 0 313 24 0c26,0 43,-8 53,-25l67 -114 91 0 -54 94zm413 245c-40,38 -87,57 -143,57 -54,0 -101,-19 -141,-57 -40,-38 -59,-87 -59,-145 0,-114 87,-202 200,-202 55,0 102,20 142,58 40,38 60,86 60,144 0,58 -20,107 -59,145zm-58 -235c-22,-23 -50,-35 -85,-35 -73,0 -117,54 -117,125 0,70 45,125 117,125 73,0 118,-55 118,-125 0,-37 -11,-67 -33,-90zm-787 0c-22,-23 -50,-35 -84,-35 -74,0 -118,54 -118,125 0,70 45,125 118,125 72,0 117,-55 117,-125 0,-37 -11,-67 -33,-90z"/>
   </g>
   <path class="fil1" d="M1347 -126c-17,-165 -158,-294 -328,-294 -169,1 -309,129 -328,294l-3 38 102 6 2 -38c15,-119 104,-199 227,-199 124,0 215,81 228,201l6 51 100 -7 -6 -52z"/>
   <path class="fil2" d="M420 -141c-22,0 -40,18 -40,40l1 590 1 106 0 28 0 364c0,22 19,41 41,40l364 0 64 0 404 -1c222,-1 404,-183 404,-406l0 -28 -2 -662c0,-40 -33,-73 -73,-73 -74,-1 -150,-1 -224,4l-92 8c-82,10 -164,28 -231,62 -11,6 -25,6 -37,0 -69,-37 -144,-55 -230,-65l-92 -6c-86,-4 -174,-2 -258,-1z"/>
   <g style="clip-path:url(#id0)">
    <image x="420" y="1023" width="370.845" height="7.5642" xlink:href="Logo Tokopedia_Images\Logo Tokopedia_ImgID1.png"/>
   </g>
   <g style="clip-path:url(#id1)">
    <image x="378" y="-147" width="1286" height="774" xlink:href="Logo Tokopedia_Images\Logo Tokopedia_ImgID2.png"/>
   </g>
   <g style="clip-path:url(#id2)">
    <image x="378" y="-147" width="1286" height="1178" xlink:href="Logo Tokopedia_Images\Logo Tokopedia_ImgID3.png"/>
   </g>
   <path class="fil3" d="M497 1027l290 0 64 0 404 -1c98,0 189,-36 259,-95 -83,-191 -273,-325 -494,-324 -256,0 -470,180 -523,420z"/>
   <g style="clip-path:url(#id3)">
    <image x="492" y="622" width="767" height="409" xlink:href="Logo Tokopedia_Images\Logo Tokopedia_ImgID4.png"/>
   </g>
   <path class="fil4" d="M1021 1026l238 -4c98,0 186,-34 255,-91 89,-74 145,-185 145,-311l0 -28 -2 -702c0,-18 -15,-33 -33,-33 -87,0 -177,-2 -264,4l-92 8c-90,11 -180,32 -249,72l2 1085z"/>
   <g style="clip-path:url(#id4)">
    <image x="1015" y="-147" width="648" height="1178" xlink:href="Logo Tokopedia_Images\Logo Tokopedia_ImgID5.png"/>
   </g>
   <g style="clip-path:url(#id5)">
    <image x="1015" y="318" width="7.5643" height="48.3712" xlink:href="Logo Tokopedia_Images\Logo Tokopedia_ImgID6.png"/>
   </g>
   <g style="clip-path:url(#id6)">
    <image x="1015" y="49" width="591" height="588" xlink:href="Logo Tokopedia_Images\Logo Tokopedia_ImgID7.png"/>
   </g>
   <path class="fil5" d="M1309 90c140,-1 253,112 253,252 1,139 -112,253 -252,253 -139,0 -253,-113 -253,-252 0,-140 113,-253 252,-253z"/>
   <g style="clip-path:url(#id7)">
    <image x="1051" y="268" width="517" height="333" xlink:href="Logo Tokopedia_Images\Logo Tokopedia_ImgID8.png"/>
   </g>
   <g style="clip-path:url(#id8)">
    <image x="1053" y="271" width="514" height="328" xlink:href="Logo Tokopedia_Images\Logo Tokopedia_ImgID9.png"/>
   </g>
   <path class="fil6" d="M1281 179c92,-10 174,57 183,149 9,92 -58,174 -149,183 -92,10 -174,-57 -184,-149 -3,-31 3,-60 14,-87 15,29 46,46 80,43 44,-5 76,-44 72,-88 -2,-20 -11,-38 -25,-50 3,-1 6,-1 9,-1z"/>
   <path class="fil2" d="M1021 1026l235 0c99,0 188,-36 258,-95 -82,-189 -276,-322 -494,-324l1 419z"/>
   <g style="clip-path:url(#id9)">
    <image x="1018" y="622" width="500" height="409" xlink:href="Logo Tokopedia_Images\Logo Tokopedia_ImgID10.png"/>
   </g>
   <g style="clip-path:url(#id10)">
    <image x="862" y="593" width="33.9395" height="36.4276" xlink:href="Logo Tokopedia_Images\Logo Tokopedia_ImgID11.png"/>
   </g>
   <g style="clip-path:url(#id11)">
    <image x="879" y="617" width="146" height="151" xlink:href="Logo Tokopedia_Images\Logo Tokopedia_ImgID12.png"/>
   </g>
   <g style="clip-path:url(#id12)">
    <image x="1018" y="596" width="160" height="172" xlink:href="Logo Tokopedia_Images\Logo Tokopedia_ImgID13.png"/>
   </g>
   <g style="clip-path:url(#id13)">
    <image x="1168" y="588" width="10.0525" height="15.0289" xlink:href="Logo Tokopedia_Images\Logo Tokopedia_ImgID14.png"/>
   </g>
   <g style="clip-path:url(#id14)">
    <image x="1018" y="619" width="144" height="148" xlink:href="Logo Tokopedia_Images\Logo Tokopedia_ImgID15.png"/>
   </g>
   <g style="clip-path:url(#id15)">
    <image x="432" y="49" width="590" height="588" xlink:href="Logo Tokopedia_Images\Logo Tokopedia_ImgID16.png"/>
   </g>
   <g style="clip-path:url(#id16)">
    <image x="1015" y="338" width="7.5643" height="10.0525" xlink:href="Logo Tokopedia_Images\Logo Tokopedia_ImgID17.png"/>
   </g>
   <g style="clip-path:url(#id17)">
    <image x="862" y="593" width="7.5643" height="7.5642" xlink:href="Logo Tokopedia_Images\Logo Tokopedia_ImgID18.png"/>
   </g>
   <path class="fil5" d="M727 90c140,-1 253,112 254,252 0,139 -113,253 -253,253 -139,0 -252,-113 -253,-252 0,-140 113,-253 252,-253z"/>
   <g style="clip-path:url(#id18)">
    <image x="471" y="268" width="516" height="333" xlink:href="Logo Tokopedia_Images\Logo Tokopedia_ImgID19.png"/>
   </g>
   <g style="clip-path:url(#id19)">
    <image x="471" y="271" width="514" height="328" xlink:href="Logo Tokopedia_Images\Logo Tokopedia_ImgID20.png"/>
   </g>
   <path class="fil6" d="M755 178c92,-1 167,74 168,166 0,93 -75,168 -167,168 -93,0 -168,-75 -168,-167 0,-31 8,-60 23,-84 12,29 41,50 75,50 44,0 80,-36 80,-81 0,-20 -7,-38 -19,-52 2,0 5,0 8,0z"/>
   <path class="fil7" d="M1021 742c0,0 0,0 0,0 0,0 0,0 -1,0 -31,-1 -102,-73 -127,-120 -2,-4 -4,-8 -5,-12 0,0 0,0 0,0 3,8 8,17 14,27 39,23 98,56 118,56 21,0 76,-29 114,-52l0 0 0 -1 1 -1 0 0 0 0 1 -1 0 -1 1 -1 0 -1 0 0 1 -1 1 -1 0 -1 1 -1 0 -1 1 -1 1 -1 0 -1 1 -1 0 -1 0 0 1 -2c1,-2 3,-5 4,-7l0 0 0 0 0 0 0 0 0 0 0 -1 0 0 0 0 0 0 0 0 0 0 0 0 0 0 0 0 0 -1 0 0 0 0 1 0 0 0c0,0 0,0 0,0l0 0 -1 0 0 0 0 0 0 1 0 0 0 0 0 0 0 0 0 0 0 0 0 0 0 0 0 1 0 0 0 0 0 0 0 0 0 0c-1,2 -2,4 -4,7l0 0c0,0 0,1 -1,2l0 0 0 1 -1 1 0 1 -1 1 -1 1 0 1 -1 1 0 1 -1 1 -1 1 0 0 0 1 -1 1 0 1 -1 1 0 0 0 0 -1 1 0 1c-31,47 -87,101 -110,101 0,0 0,0 0,0 0,0 0,0 0,0 -1,0 -1,0 -2,0 0,0 -1,0 -1,0zm-1 0l0 0zm-127 -120l0 0zm251 1l0 0z"/>
   <g style="clip-path:url(#id20)">
    <image x="884" y="607" width="268.33" height="88.6803" xlink:href="Logo Tokopedia_Images\Logo Tokopedia_ImgID21.png"/>
   </g>
   <g style="clip-path:url(#id21)">
    <image x="392" y="-126" width="602.748" height="84.2015" xlink:href="Logo Tokopedia_Images\Logo Tokopedia_ImgID22.png"/>
   </g>
   <g style="clip-path:url(#id22)">
    <image x="1037" y="-126" width="602.748" height="84.2015" xlink:href="Logo Tokopedia_Images\Logo Tokopedia_ImgID23.png"/>
   </g>
   <path class="fil8" d="M1020 675c-23,0 -95,-42 -132,-65 0,0 0,0 0,0 -3,-1 -5,-3 -7,-4l-1 0 0 0 0 -1 -1 0 0 0 0 0 -1 0 0 -1 0 0 -1 0 0 0 0 0 -1 -1 0 0 0 0 -1 -1 0 0 0 0 -1 0 0 0 0 0 -1 -1 0 0 0 0 0 0 -1 0 0 0 0 0 0 -1 -1 0 0 0 0 0 0 0 0 0 -1 0 0 -1 0 0 -1 0 0 0 0 0 0 0 0 0 0 0 -1 -1 0 0 0 0 -1 0 0 0 0 0 0 0 0 0 0 -1 0 0 0 0 0 0 0 0 0 0 0 0 0 0 0 0 0 0 0 0 0 0 0 0 0 0 0 0 0 0 0 0 0 0 0 0 0 0 0 0 0 0 0 0 0 0 0 0 0 0 0 0 0 0 0 0 0 0 0 0 0 0 0 0 0 0 0 0 0 0 0 0 0 0 0 0 0 0 0 1 0 0 0 0 0 0 1 0 0 0 0 0 1 1 0 0 0 0 0 0 0 0 0 0 1 0 0 0 0 1 1 0 0 0 0 0 0 0 0 0 1 0 0 1 0 0 0 0 1 0 0 0 0 0 0 0 1 1 0 0 0 0 1 0 0 0 0 0 1 1 0 0 0 0 1 1 0 0 0 0 1 0 0 0 0 1 1 0 0 0 0 0 1 0 0 1 0 0 1 0c32,20 111,67 138,69 16,-42 28,-145 33,-199 -6,-1 -11,-2 -16,-3l0 0 -1 0 0 0 0 0 0 0 -1 0 0 0 0 0 0 0 0 0 -1 0 0 0 0 0 0 0 0 0 -1 0 0 0 0 0 0 0 0 0 0 0 -1 0 0 0 0 0 0 0 0 0 -1 0 0 0 0 0 0 0 0 0 0 0 -1 0 0 0 0 0 0 -1 0 0 0 0 -1 0 0 0 0 0 0 0 0 0 0 0 -1 0 0 0 0 0 0 0 0 0 0 0 0 0 -1 0 0 0 0 0 0 0 0 0 1 0 0 0 0 0 0 0 0 0 0 0 0 0 1 0 0 0 0 0 0 0 0 0 0 0 1 0 0 0 0 0 0 1 0 0 0 0 1 0 0 0 0 0 0 0 0 0 0 0 1 0 0 0 0 0 0 0 0 0 1 0 0 0 0 0 0 0 0 0 0 0 1 0 0 0 0 0 0 0 0 0 1 0 0 0 0 0 0 0 0 0 1 0 0 0 0 0 0 0 1 0 0 0c5,1 10,2 15,3 16,3 36,9 55,19 2,2 4,3 5,4 17,10 33,24 45,44 2,2 3,4 4,6 5,10 9,20 13,32 1,3 1,8 1,12 0,2 -1,3 -1,5 0,0 0,0 -1,1 -3,2 -12,8 -23,15 0,0 0,0 0,0 -37,23 -105,61 -129,61zm-132 -65l0 0zm131 65c2,-51 3,-89 3,-117 0,28 -1,66 -3,117zm130 -61l0 0zm-282 -17l0 0z"/>
   <g style="clip-path:url(#id23)">
    <image x="862" y="469" width="163" height="211" xlink:href="Logo Tokopedia_Images\Logo Tokopedia_ImgID24.png"/>
   </g>
   <g style="clip-path:url(#id24)">
    <image x="1018" y="469" width="12.5408" height="7.5643" xlink:href="Logo Tokopedia_Images\Logo Tokopedia_ImgID25.png"/>
   </g>
   <g style="clip-path:url(#id25)">
    <image x="1013" y="469" width="43.8924" height="210.603" xlink:href="Logo Tokopedia_Images\Logo Tokopedia_ImgID26.png"/>
   </g>
   <polygon class="fil5" points="1012,472 1011,473 "/>
  </g>
 </g>
</svg>
